<svg xmlns="http://www.w3.org/2000/svg" width="200" height="152" viewBox="0 0 200 152"><path fill="#D4D4D4" d="M192.6 31.6l-39.7-7.4-5.5-17.7c-1.5-4.8-6.6-7.5-11.4-6L95 13.4 59.2 6.6c-5-.9-9.7 2.4-10.7 7.3l-2.8 14.8L6.4 41.1c-4.8 1.5-7.5 6.7-6 11.5l29 93c1.5 4.8 6.6 7.5 11.4 6l61.1-19.2 69.5 13c.6.1 1.1.1 1.7.2 4.4 0 8.2-3.2 9-7.5l17.8-95.8c.9-5-2.4-9.8-7.3-10.7zm-54-23.4c.4 0 .8.3.9.7l4.2 13.6-31.7-5.9 26.6-8.4zM38.4 143.8h-.3c-.4 0-.8-.3-.9-.7l-29-93c-.2-.5.1-1.1.7-1.3l35.3-11.1-13.3 71.9c-.9 5 2.3 9.8 7.3 10.7l46.8 8.8-46.6 14.7zm134.7-6.4L72 118.4 118.1 75l11 22.6c1 2 3.4 2.9 5.4 1.9.5-.2.9-.5 1.2-.9L161.3 71l17.6 39.3-4.9 26.2c0 .5-.4.9-.9.9zm8.4-41.1l-15.3-34.2c-.9-2.1-3.3-3-5.4-2.1-.5.2-1 .5-1.3.9l-25.7 27.7L123 66.4c-1-2-3.4-2.9-5.4-1.9-.4.2-.7.4-1 .7l-54.4 51.4-22.5-4.2c-.5-.1-.9-.6-.8-1.2l17.8-95.8c.1-.5.6-.9 1.1-.8h.1l133.3 25c.5.1.9.6.8 1.2l-10.5 55.5zM85.4 38.4c-1.1-.2-2.2-.3-3.3-.3-9.8.1-17.7 8.1-17.7 17.9 0 8.5 6.1 15.8 14.4 17.3 1.1.2 2.2.3 3.2.3 9.8 0 17.7-8 17.7-17.8.2-8.5-5.9-15.8-14.3-17.4zm6.2 19.2c-1 5.2-6 8.6-11.1 7.6-5.2-1-8.6-6-7.6-11.1s6-8.6 11.1-7.6c2.5.5 4.7 1.9 6.1 4 1.4 2 1.9 4.6 1.5 7.1z"/></svg>